<svg xmlns="http://www.w3.org/2000/svg" viewBox="0 0 180 180">
  <defs>
    <linearGradient id="gradApple" x1="0%" y1="0%" x2="100%" y2="100%">
      <stop offset="0%" style="stop-color:#00C896"/>
      <stop offset="100%" style="stop-color:#00E5FF"/>
    </linearGradient>
  </defs>
  <rect width="180" height="180" rx="40" fill="url(#gradApple)"/>
  <path d="M90 45c-11 0-21 6-26 14-4-2-8-3-12-3-16 0-29 13-29 29s13 29 29 29c4 0 8-1 12-3 5 8 15 14 26 14s21-6 26-14c4 2 8 3 12 3 16 0 29-13 29-29s-13-29-29-29c-4 0-8 1-12 3-5-8-15-14-26-14zm0 11c7 0 14 4 18 9-3 4-4 8-4 13s1 9 4 13c-4 5-11 9-18 9s-14-4-18-9c3-4 4-8 4-13s-1-9-4-13c4-5 11-9 18-9z" fill="white"/>
</svg>